<svg width="686" height="593" viewBox="0 0 686 593" fill="none" xmlns="http://www.w3.org/2000/svg">
<g id="bg-img-contact">
<path id="Rectangle 8" d="M0 0H670C678.837 0 686 7.16344 686 16V490C686 498.837 678.837 506 670 506H0V0Z" fill="#294BA2"/>
<g id="Ellipse 1" style="mix-blend-mode:overlay" opacity="0.7">
<path d="M313 326.5C313 473.684 193.236 593 45.5 593C-102.236 593 -222 473.684 -222 326.5C-222 179.316 -102.236 60 45.5 60C193.236 60 313 179.316 313 326.5ZM-168.241 326.5C-168.241 444.104 -72.5456 539.442 45.5 539.442C163.546 539.442 259.241 444.104 259.241 326.5C259.241 208.896 163.546 113.558 45.5 113.558C-72.5456 113.558 -168.241 208.896 -168.241 326.5Z" fill="#91A4AE"/>
</g>
<g id="Ellipse 2" style="mix-blend-mode:overlay" opacity="0.7">
<path d="M464 187.5C464 220.361 436.466 247 402.5 247C368.534 247 341 220.361 341 187.5C341 154.639 368.534 128 402.5 128C436.466 128 464 154.639 464 187.5ZM367.4 187.5C367.4 206.255 383.115 221.458 402.5 221.458C421.885 221.458 437.6 206.255 437.6 187.5C437.6 168.745 421.885 153.542 402.5 153.542C383.115 153.542 367.4 168.745 367.4 187.5Z" fill="#91A4AE"/>
</g>
</g>
</svg>
